<svg width="25" height="26" viewBox="0 0 25 26" fill="none" xmlns="http://www.w3.org/2000/svg">
<g clip-path="url(#clip0_9_89)">
<path d="M1.04163 1.54167H5.20829L7.99996 15.4896C8.09521 15.9692 8.35611 16.4 8.73698 16.7066C9.11786 17.0132 9.59444 17.176 10.0833 17.1667H20.2083C20.6971 17.176 21.1737 17.0132 21.5546 16.7066C21.9355 16.4 22.1964 15.9692 22.2916 15.4896L23.9583 6.75001H6.24996M10.4166 22.375C10.4166 22.9503 9.95026 23.4167 9.37496 23.4167C8.79966 23.4167 8.33329 22.9503 8.33329 22.375C8.33329 21.7997 8.79966 21.3333 9.37496 21.3333C9.95026 21.3333 10.4166 21.7997 10.4166 22.375ZM21.875 22.375C21.875 22.9503 21.4086 23.4167 20.8333 23.4167C20.258 23.4167 19.7916 22.9503 19.7916 22.375C19.7916 21.7997 20.258 21.3333 20.8333 21.3333C21.4086 21.3333 21.875 21.7997 21.875 22.375Z" stroke="white" stroke-width="2" stroke-linecap="round" stroke-linejoin="round"/>
</g>
<defs>
<clipPath id="clip0_9_89">
<rect width="25" height="25" fill="white" transform="translate(0 0.5)"/>
</clipPath>
</defs>
</svg>
